<svg width="122" height="56" viewBox="0 0 122 56" fill="none" xmlns="http://www.w3.org/2000/svg">
<path d="M0 0.202637H38.6076V19.5065C38.6076 30.1622 29.9595 38.8103 19.3038 38.8103C8.64811 38.8103 0 30.1622 0 19.5065V0.202637Z" fill="#ED1C24"/>
<path d="M11.5828 0.202637H27.0258V19.5065C27.0258 23.7687 23.5666 27.228 19.3043 27.228C15.042 27.228 11.5828 23.7687 11.5828 19.5065V0.202637Z" fill="#D11C24"/>
<path d="M19.3043 27.2287C23.5688 27.2287 27.0258 23.7717 27.0258 19.5072C27.0258 15.2427 23.5688 11.7856 19.3043 11.7856C15.0398 11.7856 11.5828 15.2427 11.5828 19.5072C11.5828 23.7717 15.0398 27.2287 19.3043 27.2287Z" fill="#FF9B00"/>
<path d="M19.3043 55.7975C23.5688 55.7975 27.0258 52.3405 27.0258 48.076C27.0258 43.8115 23.5688 40.3545 19.3043 40.3545C15.0398 40.3545 11.5828 43.8115 11.5828 48.076C11.5828 52.3405 15.0398 55.7975 19.3043 55.7975Z" fill="#FF9B00"/>
<path d="M41.6963 0.47998H80.3039V19.7838C80.3039 30.4395 71.6558 39.0876 61.0001 39.0876C50.3444 39.0876 41.6963 30.4395 41.6963 19.7838V0.47998V0.47998Z" fill="#0000FF"/>
<path d="M53.2791 0.202637H68.7221V19.5065C68.7221 23.7687 65.2629 27.228 61.0006 27.228C56.7383 27.228 53.2791 23.7687 53.2791 19.5065V0.202637Z" fill="#0000D6"/>
<path d="M61.0006 27.2287C65.2651 27.2287 68.7221 23.7717 68.7221 19.5072C68.7221 15.2427 65.2651 11.7856 61.0006 11.7856C56.7361 11.7856 53.2791 15.2427 53.2791 19.5072C53.2791 23.7717 56.7361 27.2287 61.0006 27.2287Z" fill="#FFC700"/>
<path d="M61.0006 55.7975C65.2651 55.7975 68.7221 52.3405 68.7221 48.076C68.7221 43.8115 65.2651 40.3545 61.0006 40.3545C56.7361 40.3545 53.2791 43.8115 53.2791 48.076C53.2791 52.3405 56.7361 55.7975 61.0006 55.7975Z" fill="#FFC700"/>
<path d="M83.3926 0.202637H122V19.5065C122 30.1622 113.352 38.8103 102.696 38.8103C92.0407 38.8103 83.3926 30.1622 83.3926 19.5065V0.202637Z" fill="#FF9B00"/>
<path d="M94.9753 0.202637H110.418V19.5065C110.418 23.7687 106.959 27.228 102.697 27.228C98.4346 27.228 94.9753 23.7687 94.9753 19.5065V0.202637Z" fill="#FF7B12"/>
<path d="M102.697 27.2287C106.961 27.2287 110.418 23.7717 110.418 19.5072C110.418 15.2427 106.961 11.7856 102.697 11.7856C98.4324 11.7856 94.9753 15.2427 94.9753 19.5072C94.9753 23.7717 98.4324 27.2287 102.697 27.2287Z" fill="#FFC700"/>
<path d="M102.697 55.7975C106.961 55.7975 110.418 52.3405 110.418 48.076C110.418 43.8115 106.961 40.3545 102.697 40.3545C98.4324 40.3545 94.9753 43.8115 94.9753 48.076C94.9753 52.3405 98.4324 55.7975 102.697 55.7975Z" fill="#FFC700"/>
</svg>
