<svg width="90" height="80" viewBox="0 0 90 80" fill="none" xmlns="http://www.w3.org/2000/svg">
<rect width="90" height="80" rx="12" fill="#FBDD00"/>
<path d="M60.3923 15.3922C61.0827 15.3922 61.6423 15.9519 61.6423 16.6422L61.6423 24.1422C61.6423 24.8326 61.0827 25.3922 60.3923 25.3922L29.1423 25.3922C28.452 25.3922 27.8923 24.8326 27.8923 24.1422L27.8923 16.6422C27.8923 15.9519 28.452 15.3922 29.1423 15.3922L60.3923 15.3922Z" fill="#C52229"/>
<path fill-rule="evenodd" clip-rule="evenodd" d="M62.8923 16.6422L62.8923 24.1422C62.8923 25.5229 61.773 26.6422 60.3923 26.6422L29.1423 26.6422C27.7616 26.6422 26.6423 25.5229 26.6423 24.1422L26.6423 16.6422C26.6423 15.2615 27.7616 14.1422 29.1423 14.1422L60.3923 14.1422C61.773 14.1422 62.8923 15.2615 62.8923 16.6422ZM61.6423 16.6422C61.6423 15.9519 61.0827 15.3922 60.3923 15.3922L29.1423 15.3922C28.452 15.3922 27.8923 15.9519 27.8923 16.6422L27.8923 24.1422C27.8923 24.8326 28.452 25.3922 29.1423 25.3922L60.3923 25.3922C61.0827 25.3922 61.6423 24.8326 61.6423 24.1422L61.6423 16.6422Z" fill="#9B0F15"/>
<path fill-rule="evenodd" clip-rule="evenodd" d="M29.0276 16.0172C29.0276 15.672 29.3074 15.3922 29.6526 15.3922H60.2355C60.5807 15.3922 60.8605 15.672 60.8605 16.0172C60.8605 16.3624 60.5807 16.6422 60.2355 16.6422H29.6526C29.3074 16.6422 29.0276 16.3624 29.0276 16.0172Z" fill="#DF3840"/>
<path fill-rule="evenodd" clip-rule="evenodd" d="M28.7908 19.65C28.7908 19.3048 29.0706 19.025 29.4158 19.025H59.9987C60.3439 19.025 60.6237 19.3048 60.6237 19.65C60.6237 19.9952 60.3439 20.275 59.9987 20.275H29.4158C29.0706 20.275 28.7908 19.9952 28.7908 19.65Z" fill="#AF1B22"/>
<path fill-rule="evenodd" clip-rule="evenodd" d="M28.7908 17.3453C28.7908 17.0002 29.0706 16.7203 29.4158 16.7203H59.9987C60.3439 16.7203 60.6237 17.0002 60.6237 17.3453C60.6237 17.6905 60.3439 17.9703 59.9987 17.9703H29.4158C29.0706 17.9703 28.7908 17.6905 28.7908 17.3453Z" fill="#AF1B22"/>
<path fill-rule="evenodd" clip-rule="evenodd" d="M28.7908 21.9156C28.7908 21.5705 29.0706 21.2906 29.4158 21.2906H59.9987C60.3439 21.2906 60.6237 21.5705 60.6237 21.9156C60.6237 22.2608 60.3439 22.5406 59.9987 22.5406H29.4158C29.0706 22.5406 28.7908 22.2608 28.7908 21.9156Z" fill="#AF1B22"/>
<path fill-rule="evenodd" clip-rule="evenodd" d="M29.0276 23.986C29.0276 23.6408 29.3074 23.361 29.6526 23.361H60.2355C60.5807 23.361 60.8605 23.6408 60.8605 23.986C60.8605 24.3311 60.5807 24.611 60.2355 24.611H29.6526C29.3074 24.611 29.0276 24.3311 29.0276 23.986Z" fill="#AF1B22"/>
<path d="M29.8299 15.8839C29.3418 15.3957 28.5503 15.3957 28.0622 15.8839L22.7589 21.1872C22.2707 21.6753 22.2707 22.4668 22.7589 22.955L44.0793 44.2754C44.5675 44.7635 45.3589 44.7635 45.8471 44.2754L51.1504 38.9721C51.6385 38.4839 51.6385 37.6925 51.1504 37.2043L29.8299 15.8839Z" fill="#F1333B"/>
<path fill-rule="evenodd" clip-rule="evenodd" d="M27.1783 14.9999L21.875 20.3032C20.8987 21.2796 20.8987 22.8625 21.875 23.8388L43.1954 45.1592C44.1717 46.1355 45.7546 46.1355 46.7309 45.1592L52.0342 39.8559C53.0106 38.8796 53.0106 37.2967 52.0342 36.3204L30.7138 14.9999C29.7375 14.0236 28.1546 14.0236 27.1783 14.9999ZM28.0622 15.8838C28.5503 15.3957 29.3418 15.3957 29.8299 15.8838L51.1504 37.2043C51.6385 37.6924 51.6385 38.4839 51.1504 38.972L45.8471 44.2753C45.3589 44.7635 44.5675 44.7635 44.0793 44.2753L22.7589 22.9549C22.2707 22.4667 22.2707 21.6753 22.7589 21.1871L28.0622 15.8838Z" fill="#9B0F15"/>
<path d="M59.7054 15.9083C60.1915 15.4087 60.9923 15.4032 61.4852 15.8961L66.7883 21.1992C67.2718 21.6827 67.2771 22.4648 66.8004 22.9548L46.0807 44.251C45.5946 44.7506 44.7938 44.7561 44.3009 44.2632L38.9977 38.96C38.5143 38.4766 38.509 37.6945 38.9857 37.2045L59.7054 15.9083Z" fill="#F1333B"/>
<path fill-rule="evenodd" clip-rule="evenodd" d="M62.3691 15.0122L67.6722 20.3153C68.6391 21.2821 68.6498 22.8464 67.6963 23.8264L46.9766 45.1226C46.0044 46.1218 44.4028 46.1328 43.417 45.147L38.1139 39.8439C37.147 38.877 37.1363 37.3128 38.0898 36.3328L58.8095 15.0366C59.7816 14.0373 61.3833 14.0264 62.3691 15.0122ZM61.4852 15.896C60.9923 15.4031 60.1915 15.4086 59.7054 15.9082L38.9857 37.2044C38.509 37.6944 38.5143 38.4766 38.9977 38.96L44.3009 44.2631C44.7938 44.756 45.5946 44.7505 46.0807 44.2509L66.8004 22.9547C67.2771 22.4647 67.2718 21.6826 66.7883 21.1992L61.4852 15.896Z" fill="#9B0F15"/>
<path fill-rule="evenodd" clip-rule="evenodd" d="M60.7165 16.4325C60.9617 16.6755 60.9635 17.0712 60.7206 17.3164L47.9471 30.207C47.7042 30.4522 47.3084 30.454 47.0633 30.211C46.8181 29.9681 46.8163 29.5724 47.0592 29.3272L59.8327 16.4365C60.0756 16.1914 60.4713 16.1895 60.7165 16.4325Z" fill="#FE666D"/>
<path fill-rule="evenodd" clip-rule="evenodd" d="M22.9206 21.6689C23.1647 21.4248 23.5604 21.4248 23.8045 21.6689L31.9295 29.7939C32.1736 30.038 32.1736 30.4337 31.9295 30.6778C31.6854 30.9219 31.2897 30.9219 31.0456 30.6778L22.9206 22.5528C22.6765 22.3087 22.6765 21.913 22.9206 21.6689Z" fill="#FE666D"/>
<path d="M63.2609 20.0161C63.0106 20.2664 62.6098 20.2713 62.3657 20.0272C62.1215 19.783 62.1265 19.3822 62.3767 19.132C62.627 18.8817 63.0278 18.8768 63.2719 19.1209C63.5161 19.3651 63.5111 19.7659 63.2609 20.0161Z" fill="#DB1B24"/>
<path d="M61.3591 21.5633C61.0479 21.8746 60.5493 21.8808 60.2456 21.5771C59.9419 21.2734 59.9481 20.7748 60.2594 20.4635C60.5706 20.1523 61.0692 20.1461 61.3729 20.4498C61.6766 20.7535 61.6704 21.2521 61.3591 21.5633Z" fill="#DB1B24"/>
<path d="M63.386 22.0528C63.2303 22.2084 62.9811 22.2115 62.8292 22.0597C62.6774 21.9078 62.6805 21.6585 62.8361 21.5029C62.9917 21.3472 63.241 21.3442 63.3929 21.496C63.5447 21.6479 63.5416 21.8971 63.386 22.0528Z" fill="#DB1B24"/>
<path d="M58.884 27.3328C58.7284 27.4885 58.4791 27.4915 58.3273 27.3397C58.1754 27.1878 58.1785 26.9386 58.3341 26.7829C58.4898 26.6273 58.7391 26.6242 58.8909 26.776C59.0428 26.9279 59.0397 27.1772 58.884 27.3328Z" fill="#DB1B24"/>
<path d="M61.1423 23.7449C60.9867 23.9006 60.7374 23.9037 60.5856 23.7518C60.4337 23.6 60.4368 23.3507 60.5924 23.195C60.7481 23.0394 60.9974 23.0363 61.1492 23.1882C61.3011 23.34 61.298 23.5893 61.1423 23.7449Z" fill="#DB1B24"/>
<path d="M58.8767 29.4849C58.7211 29.6406 58.4718 29.6436 58.3199 29.4918C58.1681 29.3399 58.1712 29.0907 58.3268 28.935C58.4825 28.7794 58.7317 28.7763 58.8836 28.9281C59.0354 29.08 59.0324 29.3293 58.8767 29.4849Z" fill="#DB1B24"/>
<path d="M59.4456 23.2698C59.2899 23.4255 59.0406 23.4286 58.8888 23.2767C58.7369 23.1249 58.74 22.8756 58.8957 22.7199C59.0513 22.5643 59.3006 22.5612 59.4524 22.7131C59.6043 22.8649 59.6012 23.1142 59.4456 23.2698Z" fill="#DB1B24"/>
<path d="M60.7151 27.7228C60.5595 27.8785 60.3102 27.8816 60.1583 27.7297C60.0065 27.5779 60.0096 27.3286 60.1652 27.1729C60.3208 27.0173 60.5701 27.0142 60.722 27.1661C60.8738 27.3179 60.8707 27.5672 60.7151 27.7228Z" fill="#DB1B24"/>
<path d="M65.2732 21.0661C65.1176 21.2217 64.8683 21.2248 64.7164 21.073C64.5646 20.9211 64.5677 20.6718 64.7233 20.5162C64.879 20.3606 65.1282 20.3575 65.2801 20.5093C65.4319 20.6612 65.4288 20.9104 65.2732 21.0661Z" fill="#DB1B24"/>
<path d="M63.21 24.3319C62.9567 24.5852 62.551 24.5902 62.3038 24.343C62.0567 24.0959 62.0617 23.6902 62.315 23.4369C62.5683 23.1836 62.974 23.1786 63.2211 23.4257C63.4683 23.6729 63.4633 24.0785 63.21 24.3319Z" fill="#DB1B24"/>
<path d="M65.6245 22.812C65.3712 23.0653 64.9655 23.0703 64.7184 22.8231C64.4713 22.576 64.4763 22.1703 64.7296 21.917C64.9829 21.6637 65.3886 21.6587 65.6357 21.9058C65.8828 22.153 65.8778 22.5587 65.6245 22.812Z" fill="#DB1B24"/>
<path d="M60.7344 25.944C60.4811 26.1973 60.0754 26.2024 59.8283 25.9552C59.5811 25.7081 59.5861 25.3024 59.8394 25.0491C60.0927 24.7958 60.4984 24.7908 60.7456 25.0379C60.9927 25.285 60.9877 25.6907 60.7344 25.944Z" fill="#DB1B24"/>
<path d="M62.49 26.2193C62.3344 26.3749 62.0851 26.378 61.9332 26.2262C61.7814 26.0743 61.7845 25.825 61.9401 25.6694C62.0957 25.5137 62.345 25.5107 62.4969 25.6625C62.6487 25.8144 62.6456 26.0636 62.49 26.2193Z" fill="#DB1B24"/>
<path d="M61.8757 48.125C61.8757 57.4448 54.3205 65 45.0007 65C35.6809 65 28.1257 57.4448 28.1257 48.125C28.1257 38.8052 35.6809 31.25 45.0007 31.25C54.3205 31.25 61.8757 38.8052 61.8757 48.125Z" fill="#FFBB0D"/>
<path fill-rule="evenodd" clip-rule="evenodd" d="M63.1257 48.125C63.1257 58.1352 55.0109 66.25 45.0007 66.25C34.9906 66.25 26.8757 58.1352 26.8757 48.125C26.8757 38.1148 34.9906 30 45.0007 30C55.0109 30 63.1257 38.1148 63.1257 48.125ZM45.0007 65C54.3205 65 61.8757 57.4448 61.8757 48.125C61.8757 38.8052 54.3205 31.25 45.0007 31.25C35.6809 31.25 28.1257 38.8052 28.1257 48.125C28.1257 57.4448 35.6809 65 45.0007 65Z" fill="#E89B05"/>
<path fill-rule="evenodd" clip-rule="evenodd" d="M29.3757 48.75C29.0306 48.75 28.7507 48.4702 28.7507 48.125C28.7507 39.1504 36.0261 31.875 45.0007 31.875C45.3459 31.875 45.6257 32.1548 45.6257 32.5C45.6257 32.8452 45.3459 33.125 45.0007 33.125C36.7165 33.125 30.0007 39.8407 30.0007 48.125C30.0007 48.4702 29.7209 48.75 29.3757 48.75Z" fill="#E8AA0A"/>
<path fill-rule="evenodd" clip-rule="evenodd" d="M60.6257 47.5C60.9709 47.5 61.2507 47.7798 61.2507 48.125C61.2507 57.0996 53.9754 64.375 45.0007 64.375C44.6556 64.375 44.3757 64.0952 44.3757 63.75C44.3757 63.4048 44.6556 63.125 45.0007 63.125C53.285 63.125 60.0007 56.4093 60.0007 48.125C60.0007 47.7798 60.2806 47.5 60.6257 47.5Z" fill="#E8AA0A"/>
<path d="M57.5007 48.125C57.5007 55.0286 51.9043 60.625 45.0007 60.625C38.0972 60.625 32.5007 55.0286 32.5007 48.125C32.5007 41.2214 38.0972 35.625 45.0007 35.625C51.9043 35.625 57.5007 41.2214 57.5007 48.125Z" fill="#FFDD28"/>
<path fill-rule="evenodd" clip-rule="evenodd" d="M58.7507 48.125C58.7507 55.7189 52.5946 61.875 45.0007 61.875C37.4068 61.875 31.2507 55.7189 31.2507 48.125C31.2507 40.5311 37.4068 34.375 45.0007 34.375C52.5946 34.375 58.7507 40.5311 58.7507 48.125ZM45.0007 60.625C51.9043 60.625 57.5007 55.0286 57.5007 48.125C57.5007 41.2214 51.9043 35.625 45.0007 35.625C38.0972 35.625 32.5007 41.2214 32.5007 48.125C32.5007 55.0286 38.0972 60.625 45.0007 60.625Z" fill="#E89B05"/>
<path fill-rule="evenodd" clip-rule="evenodd" d="M45.0007 58.75C50.8688 58.75 55.6257 53.993 55.6257 48.125C55.6257 47.7798 55.9056 47.5 56.2507 47.5C56.5959 47.5 56.8757 47.7798 56.8757 48.125C56.8757 54.6834 51.5591 60 45.0007 60C44.6556 60 44.3757 59.7202 44.3757 59.375C44.3757 59.0298 44.6556 58.75 45.0007 58.75Z" fill="#ECC704"/>
<path fill-rule="evenodd" clip-rule="evenodd" d="M45.0007 37.5C39.1327 37.5 34.3757 42.257 34.3757 48.125C34.3757 48.4702 34.0959 48.75 33.7507 48.75C33.4056 48.75 33.1257 48.4702 33.1257 48.125C33.1257 41.5666 38.4424 36.25 45.0007 36.25C45.3459 36.25 45.6257 36.5298 45.6257 36.875C45.6257 37.2202 45.3459 37.5 45.0007 37.5Z" fill="#FFEF9C"/>
<path d="M46.4922 53.125H44.3755V44.9658L41.8486 45.7495V44.0283L46.2651 42.4463H46.4922V53.125Z" fill="#FFEF9C"/>
<path fill-rule="evenodd" clip-rule="evenodd" d="M47.7422 53.125C47.7422 53.8154 47.1825 54.375 46.4922 54.375H44.3755C43.6851 54.375 43.1255 53.8154 43.1255 53.125V46.6622L42.2189 46.9434C41.8396 47.0611 41.4269 46.9914 41.1071 46.7558C40.7874 46.5202 40.5986 46.1467 40.5986 45.7495V44.0283C40.5986 43.5005 40.9302 43.0295 41.4271 42.8515L45.8436 41.2695C45.9789 41.2211 46.1215 41.1963 46.2651 41.1963H46.4922C47.1825 41.1963 47.7422 41.7559 47.7422 42.4463V53.125ZM44.3755 44.9658V53.125H46.4922V42.4463H46.2651L41.8486 44.0283V45.7495L44.3755 44.9658Z" fill="#E89B05"/>
</svg>
