<svg width="90" height="80" viewBox="0 0 90 80" fill="none" xmlns="http://www.w3.org/2000/svg">
<rect width="90" height="80" rx="12" fill="#ED1C24"/>
<path d="M60.3911 15.3921C61.0815 15.3921 61.6411 15.9517 61.6411 16.6421L61.6411 24.1421C61.6411 24.8324 61.0815 25.3921 60.3911 25.3921L29.1411 25.3921C28.4508 25.3921 27.8911 24.8324 27.8911 24.1421L27.8911 16.6421C27.8911 15.9517 28.4508 15.3921 29.1411 15.3921L60.3911 15.3921Z" fill="#C52229"/>
<path fill-rule="evenodd" clip-rule="evenodd" d="M62.8911 16.6421L62.8911 24.1421C62.8911 25.5228 61.7718 26.6421 60.3911 26.6421L29.1411 26.6421C27.7604 26.6421 26.6411 25.5228 26.6411 24.1421L26.6411 16.6421C26.6411 15.2614 27.7604 14.1421 29.1411 14.1421L60.3911 14.1421C61.7718 14.1421 62.8911 15.2614 62.8911 16.6421ZM61.6411 16.6421C61.6411 15.9517 61.0815 15.3921 60.3911 15.3921L29.1411 15.3921C28.4508 15.3921 27.8911 15.9517 27.8911 16.6421L27.8911 24.1421C27.8911 24.8324 28.4508 25.3921 29.1411 25.3921L60.3911 25.3921C61.0815 25.3921 61.6411 24.8324 61.6411 24.1421L61.6411 16.6421Z" fill="#9B0F15"/>
<path fill-rule="evenodd" clip-rule="evenodd" d="M29.0264 16.0171C29.0264 15.6719 29.3062 15.3921 29.6514 15.3921H60.2343C60.5795 15.3921 60.8593 15.6719 60.8593 16.0171C60.8593 16.3623 60.5795 16.6421 60.2343 16.6421H29.6514C29.3062 16.6421 29.0264 16.3623 29.0264 16.0171Z" fill="#DF3840"/>
<path fill-rule="evenodd" clip-rule="evenodd" d="M28.7896 19.6499C28.7896 19.3047 29.0694 19.0249 29.4146 19.0249H59.9975C60.3427 19.0249 60.6225 19.3047 60.6225 19.6499C60.6225 19.9951 60.3427 20.2749 59.9975 20.2749H29.4146C29.0694 20.2749 28.7896 19.9951 28.7896 19.6499Z" fill="#AF1B22"/>
<path fill-rule="evenodd" clip-rule="evenodd" d="M28.7896 17.3452C28.7896 17 29.0694 16.7202 29.4146 16.7202H59.9975C60.3427 16.7202 60.6225 17 60.6225 17.3452C60.6225 17.6904 60.3427 17.9702 59.9975 17.9702H29.4146C29.0694 17.9702 28.7896 17.6904 28.7896 17.3452Z" fill="#AF1B22"/>
<path fill-rule="evenodd" clip-rule="evenodd" d="M28.7896 21.9155C28.7896 21.5703 29.0694 21.2905 29.4146 21.2905H59.9975C60.3427 21.2905 60.6225 21.5703 60.6225 21.9155C60.6225 22.2607 60.3427 22.5405 59.9975 22.5405H29.4146C29.0694 22.5405 28.7896 22.2607 28.7896 21.9155Z" fill="#AF1B22"/>
<path fill-rule="evenodd" clip-rule="evenodd" d="M29.0264 23.9858C29.0264 23.6407 29.3062 23.3608 29.6514 23.3608H60.2343C60.5795 23.3608 60.8593 23.6407 60.8593 23.9858C60.8593 24.331 60.5795 24.6108 60.2343 24.6108H29.6514C29.3062 24.6108 29.0264 24.331 29.0264 23.9858Z" fill="#AF1B22"/>
<path d="M29.8304 15.8839C29.3423 15.3957 28.5508 15.3957 28.0626 15.8839L22.7593 21.1872C22.2712 21.6753 22.2712 22.4668 22.7593 22.955L44.0798 44.2754C44.5679 44.7635 45.3594 44.7635 45.8476 44.2754L51.1509 38.9721C51.639 38.4839 51.639 37.6925 51.1509 37.2043L29.8304 15.8839Z" fill="#F1333B"/>
<path fill-rule="evenodd" clip-rule="evenodd" d="M27.1788 14.9999L21.8755 20.3032C20.8992 21.2796 20.8992 22.8625 21.8755 23.8388L43.1959 45.1592C44.1722 46.1355 45.7551 46.1355 46.7314 45.1592L52.0347 39.8559C53.011 38.8796 53.0111 37.2967 52.0347 36.3204L30.7143 14.9999C29.738 14.0236 28.1551 14.0236 27.1788 14.9999ZM28.0626 15.8838C28.5508 15.3957 29.3423 15.3957 29.8304 15.8838L51.1509 37.2043C51.639 37.6924 51.639 38.4839 51.1509 38.972L45.8476 44.2753C45.3594 44.7635 44.5679 44.7635 44.0798 44.2753L22.7593 22.9549C22.2712 22.4667 22.2712 21.6753 22.7593 21.1871L28.0626 15.8838Z" fill="#9B0F15"/>
<path d="M59.7047 15.9083C60.1907 15.4087 60.9916 15.4032 61.4845 15.8961L66.7876 21.1992C67.271 21.6827 67.2764 22.4648 66.7996 22.9548L46.08 44.251C45.5939 44.7506 44.793 44.7561 44.3001 44.2632L38.997 38.96C38.5136 38.4766 38.5082 37.6945 38.985 37.2045L59.7047 15.9083Z" fill="#F1333B"/>
<path fill-rule="evenodd" clip-rule="evenodd" d="M62.3684 15.0122L67.6715 20.3153C68.6383 21.2821 68.6491 22.8464 67.6956 23.8264L46.9759 45.1226C46.0037 46.1218 44.4021 46.1328 43.4163 45.147L38.1131 39.8439C37.1463 38.877 37.1355 37.3128 38.089 36.3328L58.8087 15.0366C59.7809 14.0373 61.3826 14.0264 62.3684 15.0122ZM61.4845 15.896C60.9916 15.4031 60.1908 15.4086 59.7047 15.9082L38.985 37.2044C38.5082 37.6944 38.5136 38.4766 38.997 38.96L44.3001 44.2631C44.793 44.756 45.5939 44.7505 46.08 44.2509L66.7997 22.9547C67.2764 22.4647 67.271 21.6826 66.7876 21.1992L61.4845 15.896Z" fill="#9B0F15"/>
<path fill-rule="evenodd" clip-rule="evenodd" d="M60.7146 16.4325C60.9598 16.6755 60.9616 17.0712 60.7186 17.3164L47.9452 30.207C47.7022 30.4522 47.3065 30.454 47.0613 30.211C46.8161 29.9681 46.8143 29.5724 47.0573 29.3272L59.8307 16.4365C60.0737 16.1914 60.4694 16.1895 60.7146 16.4325Z" fill="#FE666D"/>
<path fill-rule="evenodd" clip-rule="evenodd" d="M22.9187 21.6689C23.1627 21.4248 23.5585 21.4248 23.8025 21.6689L31.9275 29.7939C32.1716 30.038 32.1716 30.4337 31.9275 30.6778C31.6835 30.9219 31.2877 30.9219 31.0437 30.6778L22.9187 22.5528C22.6746 22.3087 22.6746 21.913 22.9187 21.6689Z" fill="#FE666D"/>
<path d="M63.2577 20.0167C63.0074 20.267 62.6066 20.2719 62.3625 20.0278C62.1183 19.7836 62.1233 19.3828 62.3735 19.1326C62.6238 18.8823 63.0246 18.8774 63.2687 19.1215C63.5129 19.3657 63.5079 19.7665 63.2577 20.0167Z" fill="#DB1B24"/>
<path d="M61.3572 21.564C61.0459 21.8752 60.5474 21.8814 60.2437 21.5777C59.94 21.274 59.9461 20.7755 60.2574 20.4642C60.5687 20.1529 61.0672 20.1467 61.3709 20.4504C61.6746 20.7541 61.6685 21.2527 61.3572 21.564Z" fill="#DB1B24"/>
<path d="M63.3816 22.053C63.226 22.2087 62.9767 22.2118 62.8248 22.0599C62.673 21.9081 62.6761 21.6588 62.8317 21.5031C62.9873 21.3475 63.2366 21.3444 63.3885 21.4963C63.5403 21.6481 63.5372 21.8974 63.3816 22.053Z" fill="#DB1B24"/>
<path d="M58.8796 27.3332C58.724 27.4888 58.4747 27.4919 58.3229 27.3401C58.171 27.1882 58.1741 26.9389 58.3297 26.7833C58.4854 26.6276 58.7347 26.6246 58.8865 26.7764C59.0384 26.9283 59.0353 27.1775 58.8796 27.3332Z" fill="#DB1B24"/>
<path d="M61.1404 23.7454C60.9847 23.9011 60.7355 23.9041 60.5836 23.7523C60.4318 23.6004 60.4348 23.3512 60.5905 23.1955C60.7461 23.0399 60.9954 23.0368 61.1473 23.1886C61.2991 23.3405 61.296 23.5898 61.1404 23.7454Z" fill="#DB1B24"/>
<path d="M58.8735 29.4853C58.7179 29.6409 58.4686 29.644 58.3168 29.4922C58.1649 29.3403 58.168 29.091 58.3236 28.9354C58.4793 28.7797 58.7286 28.7767 58.8804 28.9285C59.0323 29.0804 59.0292 29.3296 58.8735 29.4853Z" fill="#DB1B24"/>
<path d="M59.4436 23.2702C59.288 23.4258 59.0387 23.4289 58.8868 23.2771C58.735 23.1252 58.7381 22.8759 58.8937 22.7203C59.0494 22.5647 59.2986 22.5616 59.4505 22.7134C59.6023 22.8653 59.5993 23.1146 59.4436 23.2702Z" fill="#DB1B24"/>
<path d="M60.7119 27.7232C60.5563 27.8788 60.307 27.8819 60.1552 27.7301C60.0033 27.5782 60.0064 27.3289 60.162 27.1733C60.3177 27.0177 60.5669 27.0146 60.7188 27.1664C60.8706 27.3183 60.8676 27.5676 60.7119 27.7232Z" fill="#DB1B24"/>
<path d="M65.2688 21.0665C65.1132 21.2221 64.8639 21.2252 64.712 21.0733C64.5602 20.9215 64.5633 20.6722 64.7189 20.5166C64.8746 20.3609 65.1238 20.3578 65.2757 20.5097C65.4275 20.6615 65.4245 20.9108 65.2688 21.0665Z" fill="#DB1B24"/>
<path d="M63.208 24.3322C62.9547 24.5855 62.549 24.5905 62.3019 24.3434C62.0548 24.0963 62.0598 23.6906 62.3131 23.4373C62.5664 23.184 62.9721 23.179 63.2192 23.4261C63.4663 23.6732 63.4613 24.0789 63.208 24.3322Z" fill="#DB1B24"/>
<path d="M65.6226 22.8123C65.3693 23.0656 64.9636 23.0706 64.7164 22.8235C64.4693 22.5764 64.4743 22.1707 64.7276 21.9174C64.9809 21.6641 65.3866 21.6591 65.6337 21.9062C65.8809 22.1533 65.8759 22.559 65.6226 22.8123Z" fill="#DB1B24"/>
<path d="M60.7312 25.9444C60.4779 26.1977 60.0722 26.2027 59.8251 25.9556C59.578 25.7085 59.583 25.3028 59.8363 25.0495C60.0896 24.7962 60.4953 24.7912 60.7424 25.0383C60.9895 25.2854 60.9845 25.6911 60.7312 25.9444Z" fill="#DB1B24"/>
<path d="M62.4868 26.2197C62.3312 26.3753 62.0819 26.3784 61.9301 26.2265C61.7782 26.0747 61.7813 25.8254 61.9369 25.6698C62.0926 25.5141 62.3418 25.511 62.4937 25.6629C62.6455 25.8147 62.6425 26.064 62.4868 26.2197Z" fill="#DB1B24"/>
<path d="M61.875 48.125C61.875 57.4448 54.3198 65 45 65C35.6802 65 28.125 57.4448 28.125 48.125C28.125 38.8052 35.6802 31.25 45 31.25C54.3198 31.25 61.875 38.8052 61.875 48.125Z" fill="#BCCCD2"/>
<path fill-rule="evenodd" clip-rule="evenodd" d="M63.125 48.125C63.125 58.1352 55.0102 66.25 45 66.25C34.9898 66.25 26.875 58.1352 26.875 48.125C26.875 38.1148 34.9898 30 45 30C55.0102 30 63.125 38.1148 63.125 48.125ZM45 65C54.3198 65 61.875 57.4448 61.875 48.125C61.875 38.8052 54.3198 31.25 45 31.25C35.6802 31.25 28.125 38.8052 28.125 48.125C28.125 57.4448 35.6802 65 45 65Z" fill="#81A5B0"/>
<path fill-rule="evenodd" clip-rule="evenodd" d="M29.375 48.75C29.0298 48.75 28.75 48.4702 28.75 48.125C28.75 39.1504 36.0254 31.875 45 31.875C45.3452 31.875 45.625 32.1548 45.625 32.5C45.625 32.8452 45.3452 33.125 45 33.125C36.7157 33.125 30 39.8407 30 48.125C30 48.4702 29.7202 48.75 29.375 48.75Z" fill="#D0DEE3"/>
<path fill-rule="evenodd" clip-rule="evenodd" d="M60.625 47.5C60.9702 47.5 61.25 47.7798 61.25 48.125C61.25 57.0996 53.9746 64.375 45 64.375C44.6548 64.375 44.375 64.0952 44.375 63.75C44.375 63.4048 44.6548 63.125 45 63.125C53.2843 63.125 60 56.4093 60 48.125C60 47.7798 60.2798 47.5 60.625 47.5Z" fill="#A2B9C1"/>
<path d="M57.5 48.125C57.5 55.0286 51.9036 60.625 45 60.625C38.0964 60.625 32.5 55.0286 32.5 48.125C32.5 41.2214 38.0964 35.625 45 35.625C51.9036 35.625 57.5 41.2214 57.5 48.125Z" fill="#C7D4D8"/>
<path fill-rule="evenodd" clip-rule="evenodd" d="M58.75 48.125C58.75 55.7189 52.5939 61.875 45 61.875C37.4061 61.875 31.25 55.7189 31.25 48.125C31.25 40.5311 37.4061 34.375 45 34.375C52.5939 34.375 58.75 40.5311 58.75 48.125ZM45 60.625C51.9036 60.625 57.5 55.0286 57.5 48.125C57.5 41.2214 51.9036 35.625 45 35.625C38.0964 35.625 32.5 41.2214 32.5 48.125C32.5 55.0286 38.0964 60.625 45 60.625Z" fill="#81A5B0"/>
<path fill-rule="evenodd" clip-rule="evenodd" d="M45 58.75C50.868 58.75 55.625 53.993 55.625 48.125C55.625 47.7798 55.9048 47.5 56.25 47.5C56.5952 47.5 56.875 47.7798 56.875 48.125C56.875 54.6834 51.5584 60 45 60C44.6548 60 44.375 59.7202 44.375 59.375C44.375 59.0298 44.6548 58.75 45 58.75Z" fill="#B5C3C8"/>
<path fill-rule="evenodd" clip-rule="evenodd" d="M45 37.5C39.132 37.5 34.375 42.257 34.375 48.125C34.375 48.4702 34.0952 48.75 33.75 48.75C33.4048 48.75 33.125 48.4702 33.125 48.125C33.125 41.5666 38.4416 36.25 45 36.25C45.3452 36.25 45.625 36.5298 45.625 36.875C45.625 37.2202 45.3452 37.5 45 37.5Z" fill="#D9EAEF"/>
<path d="M48.6594 53.125H41.3499V51.6748L44.7996 47.998C45.2732 47.4805 45.6223 47.0288 45.8469 46.6431C46.0764 46.2573 46.1912 45.8911 46.1912 45.5444C46.1912 45.0708 46.0715 44.6997 45.8323 44.4312C45.593 44.1577 45.2512 44.021 44.8069 44.021C44.3284 44.021 43.95 44.187 43.6716 44.519C43.3982 44.8462 43.2615 45.2783 43.2615 45.8154H41.1375C41.1375 45.166 41.2913 44.5728 41.5989 44.0356C41.9114 43.4985 42.3508 43.0786 42.9172 42.7759C43.4836 42.4683 44.1257 42.3145 44.8435 42.3145C45.9421 42.3145 46.7942 42.5781 47.3997 43.1055C48.01 43.6328 48.3152 44.3774 48.3152 45.3394C48.3152 45.8667 48.1785 46.4038 47.905 46.9507C47.6316 47.4976 47.1628 48.1348 46.4988 48.8623L44.0745 51.4185H48.6594V53.125Z" fill="#D9EAEF"/>
<path fill-rule="evenodd" clip-rule="evenodd" d="M49.9094 53.125C49.9094 53.8154 49.3498 54.375 48.6594 54.375H41.3499C40.6595 54.375 40.0999 53.8154 40.0999 53.125V51.6748C40.0999 51.3571 40.2209 51.0512 40.4383 50.8195L43.8825 47.1486C44.323 46.6667 44.6055 46.291 44.7667 46.0141L44.7727 46.004C44.9203 45.7558 44.9412 45.6091 44.9412 45.5444C44.9412 45.4109 44.9241 45.3328 44.9117 45.2944C44.9096 45.2879 44.9077 45.2825 44.9059 45.278C44.8859 45.2746 44.8538 45.271 44.8069 45.271C44.7134 45.271 44.6742 45.2868 44.6664 45.2902C44.6614 45.2924 44.6581 45.2944 44.6545 45.2971C44.6507 45.3 44.6424 45.3069 44.6302 45.3214C44.5892 45.3707 44.5115 45.4948 44.5115 45.8154C44.5115 46.5058 43.9518 47.0654 43.2615 47.0654H41.1375C40.4471 47.0654 39.8875 46.5058 39.8875 45.8154C39.8875 44.9592 40.0928 44.1501 40.5142 43.4144L40.5184 43.407C40.9509 42.6637 41.5623 42.0835 42.3243 41.6754C43.093 41.2588 43.9429 41.0645 44.8435 41.0645C46.1316 41.0645 47.314 41.3742 48.2188 42.1612C49.1558 42.9719 49.5652 44.0919 49.5652 45.3394C49.5652 46.0895 49.3694 46.8169 49.0231 47.5097C48.6765 48.2029 48.1226 48.9375 47.422 49.705C47.4167 49.7109 47.4112 49.7167 47.4057 49.7225L46.9828 50.1685H48.6594C49.3498 50.1685 49.9094 50.7281 49.9094 51.4185V53.125ZM44.0745 51.4185L46.4988 48.8623C47.1628 48.1348 47.6316 47.4976 47.905 46.9507C48.1785 46.4038 48.3152 45.8667 48.3152 45.3394C48.3152 44.3774 48.01 43.6328 47.3997 43.1055C46.7942 42.5781 45.9421 42.3145 44.8435 42.3145C44.1257 42.3145 43.4836 42.4683 42.9172 42.7759C42.3508 43.0786 41.9114 43.4985 41.5989 44.0356C41.501 44.2066 41.4187 44.3831 41.3519 44.5654C41.2089 44.956 41.1375 45.3727 41.1375 45.8154H43.2615C43.2615 45.2783 43.3982 44.8462 43.6716 44.519C43.95 44.187 44.3284 44.021 44.8069 44.021C45.2512 44.021 45.593 44.1577 45.8323 44.4312C46.0715 44.6997 46.1912 45.0708 46.1912 45.5444C46.1912 45.8911 46.0764 46.2573 45.8469 46.6431C45.6223 47.0288 45.2732 47.4805 44.7996 47.998L41.3499 51.6748V53.125H48.6594V51.4185H44.0745Z" fill="#81A5B0"/>
</svg>
