<svg width="61" height="60" viewBox="0 0 61 60" fill="none" xmlns="http://www.w3.org/2000/svg">
<rect x="0.953735" width="59.9537" height="60" rx="29.9769" fill="#ED1C24"/>
<path d="M24.8557 27.5443H18.557C18.3976 28.3412 18.315 29.1618 18.315 30C18.315 31.523 18.5865 32.9811 19.0883 34.3329H24.8085C24.6255 32.1901 24.6432 29.9115 24.8557 27.5443ZM20.2572 36.6942C21.7034 38.9788 23.8699 40.7792 26.4319 41.771C25.8357 40.1948 25.387 38.4947 25.0919 36.6942H20.2572ZM32.4649 17.4439C32.0045 17.3908 31.5322 17.3672 31.06 17.3672C30.4815 17.3672 29.9089 17.4085 29.354 17.4793C29.1592 18.052 28.1379 21.1039 27.524 25.183H34.8321C34.1119 21.5112 32.9667 18.6187 32.4649 17.4439ZM37.2288 25.183H42.8309C41.4496 21.8713 38.6869 19.2621 35.2571 18.0697C35.877 19.7226 36.6739 22.196 37.217 25.1299C37.2229 25.1476 37.2288 25.1653 37.2288 25.183ZM19.2772 25.183H25.1332C25.5641 22.1488 26.2135 19.6517 26.6562 18.1405C23.3209 19.3625 20.635 21.9304 19.2772 25.183ZM43.557 27.5443H37.5889C37.8605 29.8229 37.9018 32.0307 37.7129 34.1204L37.6952 34.3329H43.0257C43.5275 32.9811 43.7991 31.523 43.7991 30C43.7991 29.1618 43.7164 28.3412 43.557 27.5443ZM29.3185 42.5148C29.8852 42.5915 30.4697 42.6328 31.06 42.6328C31.6326 42.6328 32.1993 42.5915 32.7542 42.5207C33.8345 40.6376 34.5252 38.66 34.9384 36.6942H27.4945C27.8427 38.6718 28.4213 40.6494 29.3185 42.5148ZM27.2288 27.5443C27.034 29.5868 26.9632 31.9185 27.1816 34.3329H35.3103C35.57 31.9244 35.4697 29.5927 35.2099 27.5443H27.2288ZM35.7943 41.7296C38.3091 40.7261 40.4283 38.9492 41.8569 36.6942H37.3528C37.0163 38.4652 36.4968 40.1476 35.7943 41.7296Z" fill="#ED1C24"/>
<path d="M41.733 19.392C38.8817 16.5584 35.086 15 31.0541 15C27.0222 15 23.2324 16.5584 20.3811 19.392C17.524 22.2255 15.9537 25.9917 15.9537 30C15.9537 34.0083 17.524 37.7745 20.3811 40.608C23.2324 43.4357 27.0222 45 31.0541 45C35.086 45 38.8758 43.4416 41.7271 40.608C44.5842 37.7745 46.1544 34.0083 46.1544 30C46.1544 25.9917 44.5842 22.2255 41.733 19.392ZM42.8369 25.183H37.2347C37.2288 25.1653 37.2288 25.1476 37.2229 25.1299C36.6798 22.196 35.8829 19.7285 35.2631 18.0697C38.6928 19.2621 41.4555 21.8713 42.8369 25.183ZM29.3481 17.4793C29.9089 17.4026 30.4756 17.3672 31.0541 17.3672C31.5322 17.3672 31.9986 17.3967 32.459 17.4439C32.9667 18.6187 34.106 21.5112 34.8262 25.183H27.5181C28.132 21.098 29.1533 18.046 29.3481 17.4793ZM18.315 30C18.315 29.1617 18.3977 28.3412 18.557 27.5443H24.8557C24.6373 29.9115 24.6196 32.1901 24.8026 34.3329H19.0883C18.5866 32.9811 18.315 31.523 18.315 30ZM20.2572 36.6942H25.0978C25.3929 38.4947 25.8357 40.1948 26.4378 41.771C23.8699 40.7792 21.7034 38.9787 20.2572 36.6942ZM25.1332 25.183H19.2772C20.635 21.9303 23.3209 19.3625 26.6562 18.1405C26.2135 19.6517 25.5641 22.1488 25.1332 25.183ZM32.7542 42.5207C32.1993 42.5915 31.6326 42.6328 31.06 42.6328C30.4697 42.6328 29.8912 42.5915 29.3186 42.5148C28.4213 40.6493 27.8428 38.6718 27.5004 36.6942H34.9443C34.5252 38.66 33.8286 40.6375 32.7542 42.5207ZM35.3103 34.3329H27.1816C26.9632 31.9185 27.034 29.5868 27.2288 27.5443H35.2099C35.4697 29.5927 35.57 31.9244 35.3103 34.3329ZM35.7943 41.7296C36.4909 40.1535 37.0163 38.4711 37.3528 36.6942H41.8569C40.4343 38.9492 38.3091 40.7261 35.7943 41.7296ZM37.6952 34.3329L37.7129 34.1204C37.9018 32.0307 37.8605 29.8229 37.5889 27.5443H43.557C43.7164 28.3412 43.7991 29.1617 43.7991 30C43.7991 31.523 43.5275 32.9811 43.0258 34.3329H37.6952Z" fill="white"/>
</svg>
