<svg width="60" height="60" viewBox="0 0 60 60" fill="none" xmlns="http://www.w3.org/2000/svg">
<rect width="59.9537" height="60" rx="29.9769" fill="#0000FF"/>
<path fill-rule="evenodd" clip-rule="evenodd" d="M44.8479 15.17C45.0923 15.5528 45.0376 16.0541 44.7164 16.3753L28.2888 32.803C27.9882 33.1034 27.5269 33.1727 27.1514 32.9739L15.5151 26.8136C15.1772 26.6347 14.9762 26.2736 15.0023 25.8922C15.0283 25.5107 15.2764 25.1804 15.6354 25.049L43.6993 14.7817C44.1259 14.6256 44.6035 14.7871 44.8479 15.17ZM18.3428 26.12L27.4253 30.9284L40.2478 18.106L18.3428 26.12Z" fill="white"/>
<path fill-rule="evenodd" clip-rule="evenodd" d="M44.5523 14.8747C44.9351 15.1191 45.0966 15.5967 44.9405 16.0233L34.6732 44.0871C34.5419 44.4463 34.2115 44.6944 33.83 44.7203C33.4486 44.7464 33.0875 44.5454 32.9087 44.2075L26.7482 32.5712C26.5494 32.1956 26.6188 31.7344 26.9193 31.4338L43.347 15.0062C43.6682 14.685 44.1694 14.6304 44.5523 14.8747ZM41.6163 19.4749L28.7938 32.2973L33.6022 41.3798L41.6163 19.4749Z" fill="white"/>
</svg>
