<svg width="61" height="60" viewBox="0 0 61 60" fill="none" xmlns="http://www.w3.org/2000/svg">
<rect x="0.907471" width="59.9537" height="60" rx="29.9769" fill="#FF9B00"/>
<path d="M14.9075 18.8V41.2C14.9075 41.9426 15.2025 42.6548 15.7276 43.1799C16.2527 43.705 16.9649 44 17.7075 44H45.7075C46.0788 44 46.4349 43.8525 46.6974 43.59C46.96 43.3274 47.1075 42.9713 47.1075 42.6V23C47.1075 22.6287 46.96 22.2726 46.6974 22.0101C46.4349 21.7475 46.0788 21.6 45.7075 21.6H17.7075C16.9649 21.6 16.2527 21.305 15.7276 20.7799C15.2025 20.2548 14.9075 19.5426 14.9075 18.8ZM14.9075 18.8C14.9075 18.0574 15.2025 17.3452 15.7276 16.8201C16.2527 16.295 16.9649 16 17.7075 16H41.5075" stroke="white" stroke-width="2.5" stroke-linecap="round" stroke-linejoin="round"/>
<path d="M39.4079 34.8992C40.5677 34.8992 41.5079 33.959 41.5079 32.7992C41.5079 31.6394 40.5677 30.6992 39.4079 30.6992C38.2481 30.6992 37.3079 31.6394 37.3079 32.7992C37.3079 33.959 38.2481 34.8992 39.4079 34.8992Z" fill="white"/>
</svg>
