<svg width="32" height="33" viewBox="0 0 32 33" fill="none" xmlns="http://www.w3.org/2000/svg">
<rect y="0.380127" width="32" height="32" rx="16" fill="#FF9B00"/>
<path d="M23.5007 7.58008H8.49917C8.1546 7.58008 7.82414 7.71696 7.58048 7.96061C7.33683 8.20426 7.19995 8.53473 7.19995 8.8793V23.8809C7.19995 24.2254 7.33683 24.5559 7.58048 24.7995C7.82414 25.0432 8.1546 25.1801 8.49917 25.1801H23.5007C23.8453 25.1801 24.1758 25.0432 24.4194 24.7995C24.6631 24.5559 24.8 24.2254 24.8 23.8809V8.8793C24.8 8.53473 24.6631 8.20426 24.4194 7.96061C24.1758 7.71696 23.8453 7.58008 23.5007 7.58008ZM12.4457 22.5731H9.79962V14.1679H12.4457V22.5731ZM11.1208 13.0031C10.8207 13.0014 10.5278 12.9108 10.279 12.7428C10.0303 12.5748 9.8369 12.3369 9.72326 12.059C9.60962 11.7812 9.58083 11.476 9.64051 11.1818C9.70019 10.8876 9.84567 10.6177 10.0586 10.4062C10.2715 10.1946 10.5423 10.0509 10.8369 9.99308C11.1314 9.93529 11.4365 9.96605 11.7136 10.0815C11.9907 10.1969 12.2273 10.3918 12.3938 10.6416C12.5602 10.8914 12.6489 11.1849 12.6486 11.4851C12.6514 11.686 12.6138 11.8855 12.5379 12.0716C12.462 12.2577 12.3494 12.4266 12.2068 12.5683C12.0643 12.7099 11.8946 12.8214 11.7081 12.8961C11.5215 12.9708 11.3218 13.0072 11.1208 13.0031ZM22.1991 22.5804H19.5542V17.9885C19.5542 16.6343 18.9785 16.2163 18.2354 16.2163C17.4507 16.2163 16.6807 16.8079 16.6807 18.0227V22.5804H14.0346V14.174H16.5793V15.3387H16.6135C16.869 14.8217 17.7636 13.9381 19.1288 13.9381C20.6053 13.9381 22.2003 14.8144 22.2003 17.3811L22.1991 22.5804Z" fill="white"/>
</svg>
