<svg width="32" height="33" viewBox="0 0 32 33" fill="none" xmlns="http://www.w3.org/2000/svg">
<rect y="0.380127" width="32" height="32" rx="16" fill="#FF9B00"/>
<path d="M13.072 24.82C20.168 24.82 24.048 18.94 24.048 13.844C24.048 13.676 24.048 13.508 24.04 13.348C24.792 12.804 25.448 12.124 25.968 11.348C25.28 11.652 24.536 11.86 23.752 11.956C24.552 11.476 25.16 10.724 25.448 9.82004C24.704 10.26 23.88 10.58 23 10.756C22.296 10.004 21.296 9.54004 20.184 9.54004C18.056 9.54004 16.328 11.268 16.328 13.396C16.328 13.7 16.36 13.996 16.432 14.276C13.224 14.116 10.384 12.58 8.48003 10.244C8.15203 10.812 7.96003 11.476 7.96003 12.18C7.96003 13.516 8.64003 14.7 9.68003 15.388C9.04803 15.372 8.45603 15.196 7.93603 14.908C7.93603 14.924 7.93603 14.94 7.93603 14.956C7.93603 16.828 9.26403 18.38 11.032 18.74C10.712 18.828 10.368 18.876 10.016 18.876C9.76803 18.876 9.52803 18.852 9.28803 18.804C9.77603 20.34 11.2 21.452 12.888 21.484C11.568 22.516 9.90403 23.132 8.09603 23.132C7.78403 23.132 7.48003 23.116 7.17603 23.076C8.86403 24.18 10.896 24.82 13.072 24.82Z" fill="white"/>
</svg>
