<svg width="200" height="43" viewBox="0 0 200 43" fill="none" xmlns="http://www.w3.org/2000/svg">
<path d="M0 0H29.4304V14.7152C29.4304 22.838 22.838 29.4304 14.7152 29.4304C6.59241 29.4304 0 22.838 0 14.7152V0Z" fill="#ED1C24"/>
<path d="M8.8291 0H20.6013V14.7152C20.6013 17.9643 17.9643 20.6013 14.7152 20.6013C11.4661 20.6013 8.8291 17.9643 8.8291 14.7152V0Z" fill="#D11C24"/>
<path d="M14.7152 20.6013C17.966 20.6013 20.6013 17.966 20.6013 14.7152C20.6013 11.4644 17.966 8.8291 14.7152 8.8291C11.4644 8.8291 8.8291 11.4644 8.8291 14.7152C8.8291 17.966 11.4644 20.6013 14.7152 20.6013Z" fill="#FF9B00"/>
<path d="M14.7152 42.3801C17.966 42.3801 20.6013 39.7448 20.6013 36.494C20.6013 33.2432 17.966 30.6079 14.7152 30.6079C11.4644 30.6079 8.8291 33.2432 8.8291 36.494C8.8291 39.7448 11.4644 42.3801 14.7152 42.3801Z" fill="#FF9B00"/>
<path d="M31.7849 0.277344H61.2153V14.9926C61.2153 23.1153 54.6229 29.7078 46.5001 29.7078C38.3773 29.7078 31.7849 23.1153 31.7849 14.9926V0.277344V0.277344Z" fill="#0000FF"/>
<path d="M40.614 0H52.3862V14.7152C52.3862 17.9643 49.7492 20.6013 46.5001 20.6013C43.251 20.6013 40.614 17.9643 40.614 14.7152V0Z" fill="#0000D6"/>
<path d="M46.5001 20.6013C49.7509 20.6013 52.3862 17.966 52.3862 14.7152C52.3862 11.4644 49.7509 8.8291 46.5001 8.8291C43.2493 8.8291 40.614 11.4644 40.614 14.7152C40.614 17.966 43.2493 20.6013 46.5001 20.6013Z" fill="#FFC700"/>
<path d="M46.5001 42.3801C49.7509 42.3801 52.3862 39.7448 52.3862 36.494C52.3862 33.2432 49.7509 30.6079 46.5001 30.6079C43.2493 30.6079 40.614 33.2432 40.614 36.494C40.614 39.7448 43.2493 42.3801 46.5001 42.3801Z" fill="#FFC700"/>
<path d="M63.5696 0H93V14.7152C93 22.838 86.4076 29.4304 78.2848 29.4304C70.162 29.4304 63.5696 22.838 63.5696 14.7152V0Z" fill="#FF9B00"/>
<path d="M72.3987 0H84.1708V14.7152C84.1708 17.9643 81.5339 20.6013 78.2848 20.6013C75.0356 20.6013 72.3987 17.9643 72.3987 14.7152V0Z" fill="#FF7B12"/>
<path d="M78.2848 20.6013C81.5356 20.6013 84.1708 17.966 84.1708 14.7152C84.1708 11.4644 81.5356 8.8291 78.2848 8.8291C75.034 8.8291 72.3987 11.4644 72.3987 14.7152C72.3987 17.966 75.034 20.6013 78.2848 20.6013Z" fill="#FFC700"/>
<path d="M78.2848 42.3801C81.5356 42.3801 84.1708 39.7448 84.1708 36.494C84.1708 33.2432 81.5356 30.6079 78.2848 30.6079C75.034 30.6079 72.3987 33.2432 72.3987 36.494C72.3987 39.7448 75.034 42.3801 78.2848 42.3801Z" fill="#FFC700"/>
<path d="M127.209 24.7361C127.209 29.7775 123.55 33.6714 119.12 33.6714C116.854 33.6714 115.198 32.8907 114.079 31.6021C114.079 32.4769 113.364 33.1917 112.489 33.1917H109V9.50854H114.079V17.8701C115.198 16.5815 116.854 15.8008 119.12 15.8008C123.56 15.8008 127.209 19.6947 127.209 24.7361V24.7361ZM122.13 24.7361C122.13 22.1966 120.437 20.6071 118.105 20.6071C115.772 20.6071 114.079 22.1966 114.079 24.7361C114.079 27.2756 115.772 28.8651 118.105 28.8651C120.437 28.8651 122.13 27.2756 122.13 24.7361Z" fill="white"/>
<path d="M140.245 15.932V21.6882C138.148 21.3496 135.166 22.1961 135.166 25.5445V31.6016C135.166 32.4763 134.451 33.1912 133.576 33.1912H130.087V16.2612H135.166V19.271C135.843 17.0042 138.11 15.9226 140.245 15.9226V15.932Z" fill="white"/>
<path d="M142.108 11.7373C142.108 10.082 143.5 8.68994 145.155 8.68994C146.81 8.68994 148.202 10.082 148.202 11.7373C148.202 13.3927 146.81 14.7847 145.155 14.7847C143.5 14.7847 142.108 13.3927 142.108 11.7373Z" fill="white"/>
<path d="M142.616 16.2708H147.695V31.6112C147.695 32.4859 146.98 33.2007 146.105 33.2007H142.616V16.2708V16.2708Z" fill="white"/>
<path d="M168.791 9.50854V33.2105H165.302C164.427 33.2105 163.712 32.4957 163.712 31.621C162.593 32.9095 160.937 33.6902 158.671 33.6902C154.231 33.6902 150.582 29.7963 150.582 24.7549C150.582 19.7135 154.241 15.8197 158.671 15.8197C160.937 15.8197 162.602 16.6003 163.712 17.8889V9.52736H168.791V9.50854ZM163.712 24.7455C163.712 22.206 162.019 20.6165 159.686 20.6165C157.354 20.6165 155.661 22.206 155.661 24.7455C155.661 27.285 157.354 28.8745 159.686 28.8745C162.019 28.8745 163.712 27.285 163.712 24.7455Z" fill="white"/>
<path d="M189.887 16.2709V33.2009H186.398C185.523 33.2009 184.808 32.4861 184.808 31.6114C183.689 32.8999 182.034 33.6806 179.767 33.6806C175.328 33.6806 171.678 29.7867 171.678 24.7453C171.678 19.704 175.337 15.8101 179.767 15.8101C182.034 15.8101 183.698 16.5907 184.808 17.8793V16.2897H189.887V16.2709ZM184.808 24.7359C184.808 22.1964 183.115 20.6069 180.783 20.6069C178.45 20.6069 176.757 22.1964 176.757 24.7359C176.757 27.2754 178.45 28.8649 180.783 28.8649C183.115 28.8649 184.808 27.2754 184.808 24.7359Z" fill="white"/>
<path d="M193.273 30.4635C193.273 28.7047 194.731 27.2468 196.49 27.2468C198.249 27.2468 199.707 28.7047 199.707 30.4635C199.707 32.2224 198.249 33.6802 196.49 33.6802C194.731 33.6802 193.273 32.2224 193.273 30.4635Z" fill="white"/>
</svg>
