<svg width="32" height="33" viewBox="0 0 32 33" fill="none" xmlns="http://www.w3.org/2000/svg">
<rect y="0.380127" width="32" height="32" rx="16" fill="#FF9B00"/>
<path d="M16.0025 8.51047C18.5677 8.51047 18.8688 8.5219 19.8827 8.56764C20.8203 8.60957 21.3272 8.76584 21.6665 8.89925C22.1162 9.07458 22.4364 9.2804 22.7718 9.61582C23.1072 9.95123 23.3169 10.2714 23.4884 10.7212C23.618 11.0604 23.7781 11.5673 23.82 12.505C23.8657 13.5188 23.8772 13.8199 23.8772 16.3851C23.8772 18.9503 23.8657 19.2514 23.82 20.2653C23.7781 21.2029 23.6218 21.7098 23.4884 22.0491C23.3131 22.4988 23.1072 22.819 22.7718 23.1544C22.4364 23.4898 22.1162 23.6995 21.6665 23.871C21.3272 24.0006 20.8203 24.1607 19.8827 24.2026C18.8688 24.2483 18.5677 24.2598 16.0025 24.2598C13.4374 24.2598 13.1362 24.2483 12.1224 24.2026C11.1847 24.1607 10.6778 24.0044 10.3386 23.871C9.88881 23.6956 9.56864 23.4898 9.23322 23.1544C8.89781 22.819 8.68817 22.4988 8.51665 22.0491C8.38706 21.7098 8.22697 21.2029 8.18505 20.2653C8.13931 19.2514 8.12787 18.9503 8.12787 16.3851C8.12787 13.8199 8.13931 13.5188 8.18505 12.505C8.22697 11.5673 8.38325 11.0604 8.51665 10.7212C8.69198 10.2714 8.89781 9.95123 9.23322 9.61582C9.56864 9.2804 9.88881 9.07076 10.3386 8.89925C10.6778 8.76965 11.1847 8.60957 12.1224 8.56764C13.1362 8.51809 13.4412 8.51047 16.0025 8.51047ZM16.0025 6.78003C13.3954 6.78003 13.0676 6.79146 12.0423 6.8372C11.0208 6.88294 10.3233 7.04684 9.71348 7.28315C9.08076 7.52709 8.54714 7.8587 8.01353 8.39231C7.47991 8.92593 7.15212 9.46335 6.90437 10.0923C6.66805 10.7021 6.50416 11.3996 6.45842 12.4249C6.41268 13.4464 6.40125 13.7742 6.40125 16.3813C6.40125 18.9884 6.41268 19.3162 6.45842 20.3415C6.50416 21.363 6.66805 22.0605 6.90437 22.6742C7.14831 23.3069 7.47991 23.8405 8.01353 24.3741C8.54714 24.9077 9.08457 25.2355 9.71348 25.4833C10.3233 25.7196 11.0208 25.8835 12.0461 25.9292C13.0714 25.9749 13.3954 25.9864 16.0063 25.9864C18.6172 25.9864 18.9412 25.9749 19.9665 25.9292C20.988 25.8835 21.6855 25.7196 22.2992 25.4833C22.9319 25.2393 23.4655 24.9077 23.9991 24.3741C24.5328 23.8405 24.8605 23.3031 25.1083 22.6742C25.3446 22.0643 25.5085 21.3668 25.5542 20.3415C25.6 19.3162 25.6114 18.9922 25.6114 16.3813C25.6114 13.7704 25.6 13.4464 25.5542 12.4211C25.5085 11.3996 25.3446 10.7021 25.1083 10.0884C24.8644 9.45573 24.5328 8.92211 23.9991 8.3885C23.4655 7.85488 22.9281 7.52709 22.2992 7.27934C21.6893 7.04303 20.9918 6.87913 19.9665 6.83339C18.9374 6.79146 18.6096 6.78003 16.0025 6.78003Z" fill="white"/>
<path d="M16.0025 8.51047C18.5677 8.51047 18.8688 8.5219 19.8827 8.56764C20.8203 8.60957 21.3272 8.76584 21.6665 8.89925C22.1162 9.07458 22.4364 9.2804 22.7718 9.61582C23.1072 9.95123 23.3169 10.2714 23.4884 10.7212C23.618 11.0604 23.7781 11.5673 23.82 12.505C23.8657 13.5188 23.8772 13.8199 23.8772 16.3851C23.8772 18.9503 23.8657 19.2514 23.82 20.2653C23.7781 21.2029 23.6218 21.7098 23.4884 22.0491C23.3131 22.4988 23.1072 22.819 22.7718 23.1544C22.4364 23.4898 22.1162 23.6995 21.6665 23.871C21.3272 24.0006 20.8203 24.1607 19.8827 24.2026C18.8688 24.2483 18.5677 24.2598 16.0025 24.2598C13.4374 24.2598 13.1362 24.2483 12.1224 24.2026C11.1847 24.1607 10.6778 24.0044 10.3386 23.871C9.88881 23.6956 9.56864 23.4898 9.23322 23.1544C8.89781 22.819 8.68817 22.4988 8.51665 22.0491C8.38706 21.7098 8.22697 21.2029 8.18505 20.2653C8.13931 19.2514 8.12787 18.9503 8.12787 16.3851C8.12787 13.8199 8.13931 13.5188 8.18505 12.505C8.22697 11.5673 8.38325 11.0604 8.51665 10.7212C8.69198 10.2714 8.89781 9.95123 9.23322 9.61582C9.56864 9.2804 9.88881 9.07076 10.3386 8.89925C10.6778 8.76965 11.1847 8.60957 12.1224 8.56764C13.1362 8.51809 13.4412 8.51047 16.0025 8.51047Z" fill="white"/>
<path d="M16.0026 11.4531C13.2811 11.4531 11.0704 13.66 11.0704 16.3853C11.0704 19.1105 13.2773 21.3174 16.0026 21.3174C18.7278 21.3174 20.9347 19.1105 20.9347 16.3853C20.9347 13.66 18.7278 11.4531 16.0026 11.4531ZM16.0026 19.5831C14.234 19.5831 12.8009 18.15 12.8009 16.3814C12.8009 14.6129 14.234 13.1798 16.0026 13.1798C17.7711 13.1798 19.2043 14.6129 19.2043 16.3814C19.2043 18.15 17.7711 19.5831 16.0026 19.5831Z" fill="#FF9B00"/>
<path d="M21.1291 12.4059C21.7648 12.4059 22.2802 11.8906 22.2802 11.2548C22.2802 10.6191 21.7648 10.1038 21.1291 10.1038C20.4934 10.1038 19.978 10.6191 19.978 11.2548C19.978 11.8906 20.4934 12.4059 21.1291 12.4059Z" fill="#FF9B00"/>
</svg>
