<svg width="32" height="33" viewBox="0 0 32 33" fill="none" xmlns="http://www.w3.org/2000/svg">
<rect y="0.380127" width="32" height="32" rx="16" fill="#FF9B00"/>
<path d="M26.9587 10.8845C26.6951 9.90533 25.9231 9.13331 24.944 8.8697C23.1551 8.38013 15.9999 8.38013 15.9999 8.38013C15.9999 8.38013 8.84464 8.38013 7.05582 8.85087C6.09551 9.11448 5.30467 9.90533 5.04105 10.8845C4.57031 12.6733 4.57031 16.3827 4.57031 16.3827C4.57031 16.3827 4.57031 20.111 5.04105 21.881C5.30467 22.8601 6.07668 23.6321 7.05582 23.8957C8.86347 24.3853 15.9999 24.3853 15.9999 24.3853C15.9999 24.3853 23.1551 24.3853 24.944 23.9146C25.9231 23.6509 26.6951 22.8789 26.9587 21.8998C27.4295 20.111 27.4295 16.4015 27.4295 16.4015C27.4295 16.4015 27.4483 12.6733 26.9587 10.8845Z" fill="white"/>
<path d="M13.7216 19.8098L19.6717 16.3828L13.7216 12.9558V19.8098Z" fill="#FF9B00"/>
</svg>
